<svg xmlns="http://www.w3.org/2000/svg" viewBox="0 0 595.28 841.89"><defs><style>.a{fill:#211915;}</style></defs><title>logo</title><path class="a" d="M137.94,448.4V435.3h12.34V383.92H137.94V370.8h77.18v23.94H198.63V383.92H172.72v18h18.66V415H172.72V435.3H186v13.1Z"/><path class="a" d="M265.72,369.58q22.32,0,35.11,11.6t12.8,28.29q0,16.74-12.83,28.31t-35.08,11.57q-23.12,0-35.52-11.91t-12.4-28q0-16.64,12.74-28.26T265.72,369.58Zm0,14.16a23.31,23.31,0,0,0-16.83,6.7Q242,397.15,242,410.08q0,11.44,6.81,18.29a22.91,22.91,0,0,0,16.93,6.87,23.35,23.35,0,0,0,16.86-6.72q6.93-6.72,6.94-19.39,0-11.33-6.62-18.35T265.72,383.74Z"/><path class="a" d="M406.77,435.3v13.1H380.51l-19.47-34h-9.87V435.3H362v13.1H316.9V435.3h11.83V383.92H316.9V370.8h52q14.69,0,21.17,6.68t6.47,15.08q0,13.23-14.93,19.3l14,23.44ZM351.17,402h7.69q14.25,0,14.26-9.14a7.62,7.62,0,0,0-3.26-6.75c-2.17-1.49-5.15-2.23-9-2.23h-9.73Z"/><path class="a" d="M405.65,470.89V456.83a26.31,26.31,0,0,0,6.45.95q5.14,0,7.38-2.57c1.48-1.71,2.23-4.72,2.23-9V383.92H408.88V370.8h47v13.12H444.15v63q0,12.94-7,19.17t-18.56,6.21A68.76,68.76,0,0,1,405.65,470.89Z"/><path class="a" d="M544.87,435.3v13.1H502.48V435.3h11L509.42,422H487l-4.59,13.34H494v13.1H455.8V435.3h10.66l16.8-51.38H471.79V370.8h56.28v13.12H516.48l18.1,51.38Zm-39-24.72-7.19-23.37-7.76,23.37Z"/><path class="a" d="M49.33,414.74v-6.29h5.91V383.82H49.33v-6.29H72v6.29H66v24.63H78.22V397h8v17.79Z"/><path class="a" d="M134.56,408.45v6.29H114.23v-6.29h5.29l-2-6.39H106.83l-2.2,6.39h5.53v6.29H91.85v-6.29H97L105,383.82h-5.5v-6.29h27v6.29H121l8.68,24.63ZM115.87,396.6l-3.45-11.21L108.7,396.6Z"/></svg>