<?xml version="1.0" encoding="utf-8"?>
<!-- Generator: Adobe Illustrator 22.1.0, SVG Export Plug-In . SVG Version: 6.00 Build 0)  -->
<svg version="1.1" id="Capa_1" xmlns="http://www.w3.org/2000/svg" xmlns:xlink="http://www.w3.org/1999/xlink" x="0px" y="0px"
	 viewBox="0 0 495.5 102.7" style="enable-background:new 0 0 495.5 102.7;" xml:space="preserve">
<style type="text/css">
	.st0{fill:#FFFFFF;}
</style>
<g>
	<g>
		<path class="st0" d="M88.6,78.8V65.7H101V14.3H88.6V1.2h77.2v23.9h-16.5V14.3h-25.9v18h18.7v13.1h-18.7v20.3h13.3v13.1H88.6z"/>
		<path class="st0" d="M216.4,0c14.9,0,26.6,3.9,35.1,11.6c8.5,7.7,12.8,17.2,12.8,28.3c0,11.2-4.3,20.6-12.8,28.3
			c-8.6,7.7-20.2,11.6-35.1,11.6c-15.4,0-27.3-4-35.5-11.9c-8.3-7.9-12.4-17.3-12.4-28c0-11.1,4.2-20.5,12.7-28.3
			C189.7,3.9,201.4,0,216.4,0z M216.4,14.2c-6.6,0-12.2,2.2-16.8,6.7c-4.6,4.5-6.9,11-6.9,19.6c0,7.6,2.3,13.7,6.8,18.3
			c4.5,4.6,10.2,6.9,16.9,6.9c6.6,0,12.2-2.2,16.9-6.7c4.6-4.5,6.9-10.9,6.9-19.4c0-7.5-2.2-13.7-6.6-18.4
			C229.1,16.5,223.4,14.2,216.4,14.2z"/>
		<path class="st0" d="M357.4,65.7v13.1h-26.3l-19.5-34h-9.9v20.9h10.8v13.1h-45.1V65.7h11.8V14.3h-11.8V1.2h52
			c9.8,0,16.8,2.2,21.2,6.7c4.3,4.4,6.5,9.5,6.5,15.1c0,8.8-5,15.3-14.9,19.3l14,23.4H357.4z M301.8,32.5h7.7c9.5,0,14.3-3,14.3-9.2
			c0-3-1.1-5.3-3.3-6.8c-2.2-1.5-5.2-2.2-9-2.2h-9.7V32.5z"/>
		<path class="st0" d="M356.3,101.3V87.3c2.4,0.6,4.6,1,6.4,1c3.4,0,5.9-0.9,7.4-2.6c1.5-1.7,2.2-4.7,2.2-9V14.3h-12.8V1.2h47v13.1
			h-11.7v63c0,8.6-2.3,15-7,19.2c-4.6,4.1-10.8,6.2-18.6,6.2C365.4,102.7,361.1,102.3,356.3,101.3z"/>
		<path class="st0" d="M495.5,65.7v13.1h-42.4V65.7h11l-4.1-13.3h-22.4l-4.6,13.3h11.5v13.1h-38.2V65.7h10.7l16.8-51.4h-11.5V1.2
			h56.3v13.1h-11.6l18.1,51.4H495.5z M456.6,41l-7.2-23.4L441.6,41H456.6z"/>
	</g>
	<g>
		<path class="st0" d="M0,45.2v-6.3h5.9V14.2H0V8h22.7v6.3h-6v24.6h12.2V27.4h8.1v17.8H0z"/>
		<path class="st0" d="M85.2,38.9v6.3H64.9v-6.3h5.3l-2-6.4H57.5l-2.2,6.4h5.5v6.3H42.5v-6.3h5.1l8.1-24.6h-5.5V8h27v6.3h-5.6
			l8.7,24.6H85.2z M66.5,27l-3.4-11.2L59.4,27H66.5z"/>
	</g>
</g>
</svg>
