<svg xmlns="http://www.w3.org/2000/svg" viewBox="0 0 495.54 102.7"><defs><style>.a{fill:#211915;}</style></defs><title>Sin título-1</title><path class="a" d="M88.61,78.82V65.72H101V14.34H88.61V1.23H165.8V25.16H149.3V14.34H123.39v18h18.66V45.41H123.39V65.72h13.26v13.1Z"/><path class="a" d="M216.39,0q22.32,0,35.12,11.6T264.3,39.89q0,16.74-12.82,28.31T216.39,79.77q-23.12,0-35.51-11.9t-12.4-28q0-16.62,12.74-28.26T216.39,0Zm0,14.17a23.3,23.3,0,0,0-16.83,6.69q-6.92,6.7-6.91,19.64,0,11.45,6.82,18.29a22.88,22.88,0,0,0,16.92,6.87,23.35,23.35,0,0,0,16.86-6.72q6.94-6.72,6.94-19.39,0-11.32-6.62-18.35T216.39,14.17Z"/><path class="a" d="M357.44,65.72v13.1H331.18l-19.47-34h-9.87V65.72h10.79v13.1H267.57V65.72h11.84V14.34H267.57V1.23h52c9.78,0,16.85,2.22,21.16,6.67s6.48,9.47,6.48,15.08q0,13.23-14.94,19.3l14,23.44Zm-55.6-33.26h7.69q14.27,0,14.26-9.14a7.63,7.63,0,0,0-3.25-6.75c-2.18-1.49-5.16-2.23-9-2.23h-9.74Z"/><path class="a" d="M356.33,101.31V87.25a26.24,26.24,0,0,0,6.44,1c3.44,0,5.89-.86,7.38-2.57s2.23-4.72,2.23-9V14.34H359.55V1.23h47V14.34H394.82v63q0,12.95-7,19.17t-18.57,6.21A68.74,68.74,0,0,1,356.33,101.31Z"/><path class="a" d="M495.54,65.72v13.1H453.15V65.72h11l-4.09-13.34H437.72l-4.59,13.34h11.53v13.1H406.47V65.72h10.67l16.79-51.38H422.46V1.23h56.28V14.34H467.15l18.11,51.38ZM456.56,41l-7.19-23.37L441.62,41Z"/><path class="a" d="M0,45.16V38.87H5.91V14.24H0V8H22.71v6.29h-6V38.87H28.89V27.37h8V45.16Z"/><path class="a" d="M85.23,38.87v6.29H64.9V38.87h5.29l-2-6.39H57.5l-2.2,6.39h5.53v6.29H42.52V38.87h5.12l8-24.63h-5.5V8h27v6.29H71.62L80.3,38.87ZM66.54,27l-3.45-11.2L59.38,27Z"/></svg>